<?xml version="1.0" encoding="UTF-8" standalone="no"?><!DOCTYPE svg PUBLIC "-//W3C//DTD SVG 1.1//EN" "http://www.w3.org/Graphics/SVG/1.1/DTD/svg11.dtd"><svg width="100%" height="100%" viewBox="0 0 420 420" version="1.1" xmlns="http://www.w3.org/2000/svg" xmlns:xlink="http://www.w3.org/1999/xlink" xml:space="preserve" xmlns:serif="http://www.serif.com/" style="fill-rule:evenodd;clip-rule:evenodd;stroke-linejoin:round;stroke-miterlimit:2;"><g><g><path d="M215.027,182.589l0,-0.822l0.005,0l-0.005,0.822Zm0.822,0.01c34.932,0.635 63.011,29.096 63.098,64.107l0.333,133.825c0.009,3.766 -1.48,7.382 -4.14,10.048c-2.66,2.666 -6.271,4.165 -10.038,4.165l-35.076,-0c-3.76,0 -7.366,-1.494 -10.025,-4.153c-2.659,-2.659 -4.153,-6.265 -4.153,-10.025l0,-197.967Z" style="fill:#fe6030;"/><path d="M277.887,244.707l-192.928,0.491c-3.766,0.01 -7.382,-1.48 -10.048,-4.14c-2.667,-2.66 -4.165,-6.272 -4.165,-10.038l0,-35.075c-0,-3.76 1.494,-7.366 4.153,-10.025c2.659,-2.659 6.265,-4.153 10.025,-4.153l129.787,0c16.853,-0 33.008,6.733 44.871,18.703c11.676,11.78 18.244,27.672 18.306,44.237Z" style="fill:#fe6030;"/><path d="M352.316,173.356l0,106.9l-0.001,0c-31.487,-0 -57.012,-25.525 -57.012,-57.012l-0,-49.888l57.013,0Z" style="fill:#fe6030;"/><path d="M295.304,116.343c31.487,0 57.012,25.525 57.012,57.012c0,0.001 0,0.001 0,0.001l-99.774,0c-31.487,-0 -57.012,-25.525 -57.012,-57.012c-0,-0.001 -0,-0.001 -0,-0.001l99.774,0Z" style="fill:#fe6030;"/><path d="M180.309,280.228c13.915,13.915 13.915,36.476 -0,50.391c-19.462,19.462 -45.415,45.415 -59.732,59.732c-5.858,5.858 -15.355,5.858 -21.213,0c-7.548,-7.548 -17.76,-17.76 -25.948,-25.948c-3.67,-3.67 -5.732,-8.648 -5.732,-13.838c0,-5.19 2.062,-10.168 5.732,-13.838c14.751,-14.751 38.425,-38.425 56.5,-56.5c13.915,-13.915 36.476,-13.915 50.391,-0c0.001,0.001 0.001,0.001 0.002,0.002Z" style="fill:#fe6030;"/><path d="M85.237,25.256c31.649,0 57.306,25.657 57.306,57.306c0,25.521 0,53.527 0,70.227c-0,8.284 -6.716,15 -15,15c-12.133,0 -29.134,0 -41.267,0c-8.284,-0 -15,-6.716 -15,-15c0,-27.733 0,-86.645 0,-113.575c0,-3.702 1.471,-7.252 4.088,-9.87c2.618,-2.618 6.168,-4.088 9.87,-4.088c0.001,-0 0.002,-0 0.003,-0Z" style="fill:#fe6030;"/></g></g></svg>